HIERARCHY
ROOT SimulationBone
{
	OFFSET 0.000000 0.000000 0.000000
	CHANNELS 6 Xposition Yposition Zposition Zrotation Yrotation Xrotation 
	JOINT Hips
	{
		OFFSET 0.000000 0.000000 0.000000
		CHANNELS 6 Xposition Yposition Zposition Zrotation Yrotation Xrotation 
		JOINT RightUpLeg
		{
			OFFSET 0.103462 1.857844 10.548508
			CHANNELS 3 Zrotation Yrotation Xrotation
			JOINT RightLeg
			{
				OFFSET 43.500000 -0.000046 -0.000008
				CHANNELS 3 Zrotation Yrotation Xrotation
				JOINT RightFoot
				{
					OFFSET 42.372192 0.000000 0.000004
					CHANNELS 3 Zrotation Yrotation Xrotation
					JOINT RightToe
					{
						OFFSET 17.299997 -0.000003 0.000018
						CHANNELS 3 Zrotation Yrotation Xrotation
						End Site
						{
							OFFSET 0.000000 0.000000 0.000000
						}
					}
				}
			}
		}
		JOINT LeftUpLeg
		{
			OFFSET 0.103459 1.857830 -10.548515
			CHANNELS 3 Zrotation Yrotation Xrotation
			JOINT LeftLeg
			{
				OFFSET 43.500046 -0.000034 -0.000006
				CHANNELS 3 Zrotation Yrotation Xrotation
				JOINT LeftFoot
				{
					OFFSET 42.372253 0.000015 -0.000006
					CHANNELS 3 Zrotation Yrotation Xrotation
					JOINT LeftToe
					{
						OFFSET 17.299969 -0.000012 0.000010
						CHANNELS 3 Zrotation Yrotation Xrotation
						End Site
						{
							OFFSET 0.000000 0.000000 0.000000
						}
					}
				}
			}
		}
		JOINT Spine
		{
			OFFSET 6.901964 -2.603727 0.000001
			CHANNELS 3 Zrotation Yrotation Xrotation
			JOINT Spine1
			{
				OFFSET 12.588105 -0.000009 0.000006
				CHANNELS 3 Zrotation Yrotation Xrotation
				JOINT Spine2
				{
					OFFSET 12.343197 0.000007 -0.000002
					CHANNELS 3 Zrotation Yrotation Xrotation
					JOINT Neck
					{
						OFFSET 25.832897 0.000002 -0.000001
						CHANNELS 3 Zrotation Yrotation Xrotation
						JOINT Head
						{
							OFFSET 11.766611 0.000000 0.000004
							CHANNELS 3 Zrotation Yrotation Xrotation
							End Site
							{
								OFFSET 0.000000 0.000000 0.000000
							}
						}
					}
					JOINT RightShoulder
					{
						OFFSET 19.745911 -1.480377 6.000110
						CHANNELS 3 Zrotation Yrotation Xrotation
						JOINT RightArm
						{
							OFFSET 11.284108 -0.000006 -0.000027
							CHANNELS 3 Zrotation Yrotation Xrotation
							JOINT RightForeArm
							{
								OFFSET 33.000046 -0.000010 0.000031
								CHANNELS 3 Zrotation Yrotation Xrotation
								JOINT RightHand
								{
									OFFSET 25.200014 0.000009 0.000001
									CHANNELS 3 Zrotation Yrotation Xrotation
									End Site
									{
										OFFSET 0.000000 0.000000 0.000000
									}
								}
							}
						}
					}
					JOINT LeftShoulder
					{
						OFFSET 19.746105 -1.480358 -6.000092
						CHANNELS 3 Zrotation Yrotation Xrotation
						JOINT LeftArm
						{
							OFFSET 11.284138 -0.000011 -0.000001
							CHANNELS 3 Zrotation Yrotation Xrotation
							JOINT LeftForeArm
							{
								OFFSET 33.000088 0.000023 -0.000007
								CHANNELS 3 Zrotation Yrotation Xrotation
								JOINT LeftHand
								{
									OFFSET 25.199776 0.000128 0.000427
									CHANNELS 3 Zrotation Yrotation Xrotation
									End Site
									{
										OFFSET 0.000000 0.000000 0.000000
									}
								}
							}
						}
					}
				}
			}
		}
	}
}
MOTION
Frames: 11
Frame Time: 0.033333
-137.548607 0.000000 -587.774871 0.000000 -30.386848 0.000000 -4.636673 91.324318 -1.040346 83.701982 -2.488062 176.014695 170.574508 -2.911895 168.978853 -19.095896 3.703584 -7.366267 87.816172 2.205761 -16.278530 21.454558 0.003108 0.000017 150.420286 11.990301 -168.269073 -47.163231 -0.243106 4.984843 85.646399 -2.995597 2.287756 21.454553 -0.003095 0.000000 6.510832 -0.327421 -0.369587 3.010972 -0.645244 -0.747429 2.692892 -0.649880 -0.743516 4.995970 -0.871330 -13.959790 -26.973387 13.899940 -21.264573 -169.058274 -77.486106 -12.607188 11.016660 51.552161 33.617774 -76.720394 -7.838510 2.312518 -1.437963 -3.316977 23.701451 -146.493187 77.791606 35.634985 1.826452 -62.601771 -27.857171 -95.636753 1.939667 -2.691327 0.085932 -4.096983 -30.705648 
-137.288617 0.000000 -589.117275 0.000000 -34.740001 0.000000 -4.844252 91.347763 -1.291145 83.332830 -2.994014 174.940810 170.372867 -1.374690 164.993847 -19.678994 4.113367 -8.214859 88.238148 2.910817 -15.901681 21.454558 0.003109 0.000019 149.948211 12.140704 -163.237628 -49.844798 -0.989745 5.493285 86.000326 -3.465939 1.598021 21.454553 -0.003087 0.000000 6.424842 -0.515402 -0.441932 2.840931 -1.019966 -0.896165 2.522829 -1.025494 -0.889990 5.093253 -0.640847 -13.039928 -27.181658 13.620250 -20.170735 -169.921842 -77.133388 -11.724996 10.525147 52.133796 31.841929 -74.789007 -8.693317 2.289882 -1.221284 -4.419187 23.672956 -147.004864 77.454215 35.125016 3.686899 -60.564517 -30.474525 -94.896620 2.145425 -2.672772 1.445850 -5.211149 -31.163448 
-137.095986 0.000000 -590.254341 0.000000 -38.921324 0.000000 -4.891511 91.451302 -1.604006 83.243682 -3.238968 173.785587 170.682329 -0.013401 161.437682 -19.606526 4.638671 -9.202952 88.277115 3.606264 -15.838642 21.454557 0.003109 0.000017 150.525171 11.973694 -160.392431 -51.191838 -1.061379 6.055796 85.988052 -3.905549 1.296629 21.454548 -0.003093 0.000000 6.384855 -0.623652 -0.469805 2.762193 -1.236090 -0.954113 2.444057 -1.241968 -0.946628 4.932901 -0.873729 -11.914815 -26.887079 13.569412 -18.963084 -169.774160 -76.693421 -11.874695 9.730310 53.236393 30.140894 -72.574305 -9.630833 2.261957 -0.795943 -6.807515 22.666432 -147.371099 77.389930 34.754861 5.490877 -59.189210 -32.685652 -93.863458 2.520239 -2.653004 2.041452 -5.422209 -33.474163 
-136.973168 0.000000 -591.188491 0.000000 -42.925736 0.000000 -4.816927 91.494743 -1.894140 83.310615 -3.335813 172.975921 171.017760 1.167799 159.194238 -19.690341 5.006965 -10.579042 88.442952 4.550099 -16.027932 21.454557 0.003107 0.000016 152.223716 11.630397 -158.337568 -50.921113 -0.719239 7.299495 86.887656 -4.818336 1.018999 21.454557 -0.003084 0.000002 6.360738 -0.663917 -0.522488 2.714880 -1.315604 -1.060158 2.396761 -1.322118 -1.052197 4.547770 -1.005839 -10.816691 -26.310008 13.099972 -17.527606 -169.727482 -76.227807 -11.921196 8.677988 54.364129 28.492131 -70.068711 -10.704766 2.232655 -0.845168 -7.813146 22.189705 -146.394026 77.598414 35.742943 7.331674 -58.489826 -34.715591 -92.909124 2.786284 -2.629169 1.923051 -4.874714 -36.188084 
-136.913265 0.000000 -591.929665 0.000000 -46.763301 0.000000 -4.759437 91.638870 -2.014798 83.094862 -3.119493 172.371397 171.008580 1.769497 157.230873 -19.786404 5.406277 -11.859094 88.338217 5.338313 -16.586426 21.454557 0.003110 0.000018 154.039358 10.701995 -157.631559 -48.918272 0.124600 9.534744 87.565641 -6.365875 1.008859 21.454557 -0.003086 0.000001 6.263453 -0.642266 -0.551068 2.520427 -1.272614 -1.115728 2.202305 -1.279461 -1.108022 4.048556 -0.799053 -9.740140 -25.601168 12.254371 -15.870016 -170.507750 -76.067578 -11.122691 7.881839 55.465815 26.992126 -67.825787 -11.430567 2.191559 -1.189317 -7.326116 21.859621 -145.227034 77.398365 36.938992 8.991961 -57.613008 -36.429398 -92.394640 2.940456 -2.617083 2.282489 -4.309880 -38.522506 
-136.916312 0.000000 -592.484925 0.000000 -50.432528 0.000000 -4.690986 91.741333 -2.070904 82.645805 -3.095544 171.782300 170.767952 2.384598 156.055083 -19.866425 5.663042 -13.436308 88.057517 6.247907 -17.540711 21.454558 0.003107 0.000016 155.735703 9.469801 -156.422588 -45.948083 -0.469122 11.381960 88.617695 -7.569921 1.192826 21.454553 -0.003086 0.000001 6.098967 -0.640186 -0.574818 2.191654 -1.269632 -1.161369 1.873537 -1.276757 -1.153684 3.271234 -0.767835 -8.616537 -24.588905 11.368742 -14.150861 -171.034385 -75.955289 -10.583592 7.492543 56.344723 26.266232 -66.414547 -11.621350 2.148235 -1.150848 -6.998552 21.802628 -143.625969 77.107344 38.581085 10.647665 -57.026335 -37.714177 -92.162843 2.983078 -2.609763 2.989815 -4.379632 -39.180216 
-136.970795 0.000000 -592.831459 0.000000 -53.921398 0.000000 -4.629983 91.793823 -2.093963 82.225716 -3.135400 171.272371 170.694391 2.890110 154.933921 -19.777364 5.847998 -14.730473 87.850863 6.952466 -18.615102 21.454560 0.003109 0.000018 157.566686 8.185597 -155.742260 -42.232521 -0.963550 13.085623 89.490177 -8.755783 0.860396 21.454553 -0.003085 -0.000001 5.961775 -0.645438 -0.626645 1.917869 -1.280699 -1.263607 1.599776 -1.288440 -1.255858 2.510861 -0.624531 -7.520977 -24.027480 10.330484 -12.451295 -171.870413 -75.836492 -9.727598 7.532323 56.826245 26.628736 -65.865338 -11.748676 2.135194 -1.529861 -6.216365 20.910407 -143.155779 77.141734 39.059086 12.563602 -56.822324 -38.647457 -92.325504 2.938356 -2.613861 3.328565 -4.672563 -38.641064 
-137.083981 0.000000 -592.965108 0.000000 -57.221996 0.000000 -4.624122 91.890373 -1.974986 81.747846 -2.775478 171.064205 170.942915 2.881307 153.221306 -19.110154 6.357410 -14.955770 87.847578 6.948885 -19.656868 21.454558 0.003109 0.000017 159.401288 6.756609 -154.773972 -38.186935 -1.369590 12.960395 88.809828 -8.669609 0.847151 21.454553 -0.003097 0.000001 5.848332 -0.574362 -0.707516 1.690973 -1.138682 -1.423081 1.372923 -1.147395 -1.416182 1.776365 -0.574512 -6.465144 -23.774908 9.531448 -10.963578 -173.549684 -75.818918 -8.009295 8.098480 57.010510 27.613961 -66.084109 -11.710699 2.141259 -1.411851 -5.332545 18.425509 -143.116259 77.332932 39.092034 14.493571 -57.100983 -39.171876 -92.469369 2.890521 -2.616909 3.186664 -5.280885 -38.085422 
-137.265845 0.000000 -592.927279 0.000000 -60.340828 0.000000 -4.609461 92.000092 -1.667915 81.145476 -1.905716 171.093822 171.168215 2.033000 151.389709 -18.558520 6.573829 -15.007247 88.111319 6.910001 -20.479180 21.454560 0.003105 0.000016 161.188899 4.939192 -154.732526 -33.964663 -1.804180 11.613620 86.873743 -7.157973 4.253897 21.454555 -0.003097 0.000000 5.736961 -0.402238 -0.786863 1.466590 -0.794903 -1.578553 1.148590 -0.804564 -1.573729 0.730909 -0.188096 -5.423101 -23.158260 8.567451 -9.315565 -174.592640 -75.886421 -6.942889 8.711450 56.894185 28.838961 -66.764075 -11.538325 2.156454 -1.164183 -4.411079 16.547723 -142.730955 77.018805 39.497075 15.462630 -57.357401 -39.326651 -92.623048 2.815840 -2.618522 2.546834 -5.329781 -37.293407 
-137.506340 0.000000 -592.683595 0.000000 -63.300934 0.000000 -4.574346 91.923141 -1.283688 80.720316 -1.412998 171.411209 171.165046 1.406096 150.026171 -18.784441 6.718189 -15.452299 88.334597 7.178758 -21.039431 21.454558 0.003107 0.000017 162.488138 3.504397 -156.511859 -30.662628 -1.831635 10.685860 86.769234 -5.925306 7.679492 21.454551 -0.003090 0.000002 5.641636 -0.309588 -0.885055 1.275162 -0.609890 -1.773301 0.957220 -0.620730 -1.769584 -0.126791 0.140257 -4.413865 -22.604122 7.598892 -7.730838 -175.325273 -75.945700 -6.194116 9.892263 56.794563 29.999854 -67.628203 -11.168912 2.165651 -1.417003 -3.604658 16.431997 -141.860843 76.327849 40.413113 16.239116 -57.676337 -39.549343 -92.858341 2.726797 -2.619506 2.203638 -5.067153 -36.728167 
-137.796075 0.000000 -592.223080 0.000000 -66.124867 0.000000 -4.633197 91.798309 -0.828857 80.436292 -1.014641 171.991773 170.841500 0.669292 149.480411 -19.952205 6.812483 -16.355363 88.369548 7.712658 -21.708732 21.454562 0.003107 0.000017 163.296941 2.523190 -157.977904 -28.893073 -1.291954 9.740492 87.954614 -5.500237 6.798885 21.454551 -0.003092 -0.000001 5.591062 -0.241108 -0.955024 1.173246 -0.473080 -1.912307 0.855334 -0.484749 -1.909420 -0.646655 0.058032 -3.500502 -22.404882 6.968105 -6.521254 -175.894173 -76.106838 -5.614311 11.329820 57.203982 30.598981 -68.374462 -10.928114 2.179142 -1.212200 -2.146943 17.142038 -142.420905 76.447534 39.836911 18.447596 -58.668613 -40.350541 -92.997547 2.689504 -2.620114 2.296608 -5.174979 -36.215186 
